<svg width="112" height="50" viewBox="0 0 112 50" fill="none" xmlns="http://www.w3.org/2000/svg">
<path d="M13.8439 5.16472C14.8941 3.52607 15.3479 2 15.3479 2C15.3479 2 13.9713 2.45699 12.2802 3.78565C10.7337 5.16877 8.94316 7.57726 9.06926 10.7285C11.3816 8.89644 12.9077 6.93462 13.8439 5.16472Z" fill="white"/>
<path d="M5.01593 23.3682L4.92621 24.6554C4.91016 24.9295 5.09981 25.1726 5.37671 25.1794C5.643 25.2012 5.88352 24.9788 5.89827 24.7138L5.98887 23.4304C7.88825 22.2986 9.19099 20.6837 10.0111 19.2438C10.4244 18.4458 10.7953 17.727 11.0617 17.2111C11.2773 16.6635 11.4177 16.3318 11.4177 16.3318C11.4177 16.3318 10.1826 16.4499 8.66354 17.4282C7.58874 18.2375 6.14389 19.7142 5.60881 22.0666C5.60535 22.0661 5.60218 22.0634 5.59803 22.0627C5.61543 19.6367 5.31885 17.7071 4.70489 16.1726C4.1444 14.3601 3.33643 13.2405 3.33643 13.2405C3.33643 13.2405 3.20573 13.6841 2.99743 14.3908C2.81841 15.111 2.58614 16.0978 2.65487 17.2519C2.67004 19.342 3.20186 21.7939 5.01593 23.3682Z" fill="white"/>
<path d="M6.20333 16.7047C6.10525 16.9725 6.25813 17.25 6.52412 17.334C6.77508 17.4141 7.03739 17.2533 7.13327 17.0011L7.54239 15.8161C9.6123 15.2032 10.9616 13.8511 12.1331 12.7435C12.7399 12.1109 13.1754 11.4817 13.4658 11.0169C13.7835 10.5646 13.9918 10.2992 13.9918 10.2992C13.9918 10.2992 12.7119 10.0715 11.2402 10.7649C10.0152 11.2927 8.4738 12.3644 7.46766 14.3734C7.45747 14.3702 7.44877 14.3666 7.43917 14.3643C7.94703 12.1443 7.96366 10.3008 7.75673 8.77519C7.43653 6.89241 6.99887 5.73069 6.99887 5.73069C6.82998 5.56643 3.73607 11.6512 6.5928 15.5585L6.20333 16.7047Z" fill="white"/>
<path d="M9.04924 39.2971C9.4088 39.8126 10.076 40.7494 10.1276 40.7C10.3303 40.9061 10.6503 40.9288 10.8399 40.7407C11.0284 40.5509 11.0422 40.2373 10.8527 40.0486C10.8006 40.0856 10.1315 39.1529 9.794 38.6766C11.539 33.294 10.4589 28.9931 10.65 28.7046C10.65 28.7046 9.26195 29.4531 8.50376 31.1721C7.69483 32.6733 7.25362 35.4601 8.95184 38.2556C8.94074 38.2639 8.92886 38.2678 8.91845 38.2762C8.90042 38.2884 8.89119 38.3086 8.87642 38.3228C6.89783 35.7257 5.20991 33.8456 3.63499 32.3748C1.7723 30.7635 0.514879 29.9404 0.51598 29.9326C0.413214 29.8923 0.783813 32.3516 2.28012 34.9658C3.6579 37.3552 6.24487 39.4041 9.04924 39.2971Z" fill="white"/>
<path d="M15.1427 44.9794L18.2958 46.9289C18.535 47.0867 18.845 46.965 18.9555 46.7297C19.0707 46.4662 18.9539 46.1939 18.7289 46.0457L15.6186 44.1142C15.4824 41.1396 14.6702 38.7208 13.9793 37.0185C13.3369 35.1286 12.5679 33.9134 12.6211 33.8584C12.6211 33.8584 11.5562 35.0693 11.4157 37.1524C11.1104 39.1125 11.9718 41.9612 14.8303 44.1044C14.8111 44.1251 14.7881 44.1423 14.7711 44.1678C11.794 42.2911 9.14973 41.2399 7.08697 40.3222C4.70408 39.4528 3.07177 39.0956 3.07177 39.0956C3.07177 39.0956 3.29293 39.7077 3.94693 40.5423C4.61306 41.3463 5.50788 42.4883 6.74076 43.4349C9.11563 45.229 12.4217 46.2973 15.1427 44.9794Z" fill="white"/>
<path d="M5.57095 31.7919L6.04923 33.5241C6.1268 33.7978 6.38882 33.9602 6.64183 33.8601C6.89553 33.7602 7.03818 33.468 6.96762 33.2048L6.50904 31.5389C8.25868 29.5453 9.3744 27.3879 9.88949 25.6285C10.6692 23.7073 10.6808 22.1549 10.7685 22.1311C10.7685 22.1311 9.35888 22.4956 7.98799 23.9557C6.71468 25.2168 5.40802 27.5969 5.91137 30.8223C5.87624 30.8201 5.84181 30.813 5.80696 30.8188C4.97314 27.6747 3.97995 25.2774 2.97151 23.4796C1.78791 21.4767 0.660621 20.3346 0.660621 20.3346C0.660621 20.3346 0.522636 20.8798 0.546999 21.791C0.541781 22.6959 0.604012 23.9613 0.823292 25.299C1.44955 27.8703 2.81872 30.7923 5.57095 31.7919Z" fill="white"/>
<path d="M98.1561 5.16472C97.1059 3.52607 96.6521 2 96.6521 2C96.6521 2 98.0287 2.45699 99.7198 3.78565C101.266 5.16877 103.057 7.57726 102.931 10.7285C100.618 8.89644 99.0923 6.93462 98.1561 5.16472Z" fill="white"/>
<path d="M106.984 23.3682L107.074 24.6554C107.09 24.9295 106.9 25.1726 106.623 25.1794C106.357 25.2012 106.116 24.9788 106.102 24.7138L106.011 23.4304C104.112 22.2986 102.809 20.6837 101.989 19.2438C101.576 18.4458 101.205 17.727 100.938 17.2111C100.723 16.6635 100.582 16.3318 100.582 16.3318C100.582 16.3318 101.817 16.4499 103.336 17.4282C104.411 18.2375 105.856 19.7142 106.391 22.0666C106.395 22.0661 106.398 22.0634 106.402 22.0627C106.385 19.6367 106.681 17.7071 107.295 16.1726C107.856 14.3601 108.664 13.2405 108.664 13.2405C108.664 13.2405 108.794 13.6841 109.003 14.3908C109.182 15.111 109.414 16.0978 109.345 17.2519C109.33 19.342 108.798 21.7939 106.984 23.3682Z" fill="white"/>
<path d="M105.797 16.7047C105.895 16.9725 105.742 17.25 105.476 17.334C105.225 17.4141 104.963 17.2533 104.867 17.0011L104.458 15.8161C102.388 15.2032 101.038 13.8511 99.8669 12.7435C99.2601 12.1109 98.8246 11.4817 98.5342 11.0169C98.2165 10.5646 98.0082 10.2992 98.0082 10.2992C98.0082 10.2992 99.2881 10.0715 100.76 10.7649C101.985 11.2927 103.526 12.3644 104.532 14.3734C104.543 14.3702 104.551 14.3666 104.561 14.3643C104.053 12.1443 104.036 10.3008 104.243 8.77519C104.563 6.89241 105.001 5.73069 105.001 5.73069C105.17 5.56643 108.264 11.6512 105.407 15.5585L105.797 16.7047Z" fill="white"/>
<path d="M102.951 39.2971C102.591 39.8126 101.924 40.7494 101.872 40.7C101.67 40.9061 101.35 40.9288 101.16 40.7407C100.972 40.5509 100.958 40.2373 101.147 40.0486C101.199 40.0856 101.869 39.1529 102.206 38.6766C100.461 33.294 101.541 28.9931 101.35 28.7046C101.35 28.7046 102.738 29.4531 103.496 31.1721C104.305 32.6733 104.746 35.4601 103.048 38.2556C103.059 38.2639 103.071 38.2678 103.082 38.2762C103.1 38.2884 103.109 38.3086 103.124 38.3228C105.102 35.7257 106.79 33.8456 108.365 32.3748C110.228 30.7635 111.485 29.9404 111.484 29.9326C111.587 29.8923 111.216 32.3516 109.72 34.9658C108.342 37.3552 105.755 39.4041 102.951 39.2971Z" fill="white"/>
<path d="M96.8573 44.9794L93.7042 46.9289C93.465 47.0867 93.155 46.965 93.0445 46.7297C92.9293 46.4662 93.0461 46.1939 93.2711 46.0457L96.3814 44.1142C96.5176 41.1396 97.3298 38.7208 98.0207 37.0185C98.6631 35.1286 99.4321 33.9134 99.3789 33.8584C99.3789 33.8584 100.444 35.0693 100.584 37.1524C100.89 39.1125 100.028 41.9612 97.1697 44.1044C97.1889 44.1251 97.2119 44.1423 97.2289 44.1678C100.206 42.2911 102.85 41.2399 104.913 40.3222C107.296 39.4528 108.928 39.0956 108.928 39.0956C108.928 39.0956 108.707 39.7077 108.053 40.5423C107.387 41.3463 106.492 42.4883 105.259 43.4349C102.884 45.229 99.5783 46.2973 96.8573 44.9794Z" fill="white"/>
<path d="M106.429 31.7919L105.951 33.5241C105.873 33.7978 105.611 33.9602 105.358 33.8601C105.104 33.7602 104.962 33.468 105.032 33.2048L105.491 31.5389C103.741 29.5453 102.626 27.3879 102.111 25.6285C101.331 23.7073 101.319 22.1549 101.231 22.1311C101.231 22.1311 102.641 22.4956 104.012 23.9557C105.285 25.2168 106.592 27.5969 106.089 30.8223C106.124 30.8201 106.158 30.813 106.193 30.8188C107.027 27.6747 108.02 25.2774 109.028 23.4796C110.212 21.4767 111.339 20.3346 111.339 20.3346C111.339 20.3346 111.477 20.8798 111.453 21.791C111.458 22.6959 111.396 23.9613 111.177 25.299C110.55 27.8703 109.181 30.7923 106.429 31.7919Z" fill="white"/>
<path d="M35.584 22.444C37.2853 20.0093 39.8373 18.792 43.24 18.792C46.2613 18.792 48.784 19.7893 50.808 21.784C52.832 23.7787 53.844 26.404 53.844 29.66C53.844 32.8573 52.7587 35.4827 50.588 37.536C48.4467 39.56 45.66 40.572 42.228 40.572C38.2093 40.572 35.2027 39.1933 33.208 36.436C31.2427 33.6493 30.26 29.836 30.26 24.996C30.26 22.5907 30.48 20.376 30.92 18.352C31.3893 16.328 32.108 14.4947 33.076 12.852C34.044 11.18 35.364 9.87467 37.036 8.936C38.708 7.99733 40.6733 7.528 42.932 7.528C46.0413 7.528 48.476 8.364 50.236 10.036C51.996 11.708 52.9933 13.732 53.228 16.108H47.904C47.728 14.612 47.156 13.4827 46.188 12.72C45.22 11.928 44.0027 11.532 42.536 11.532C40.3947 11.532 38.708 12.5293 37.476 14.524C36.2733 16.4893 35.6427 19.1293 35.584 22.444ZM37.696 34.72C38.84 35.9227 40.336 36.524 42.184 36.524C44.032 36.524 45.528 35.9227 46.672 34.72C47.8453 33.488 48.432 31.8307 48.432 29.748C48.432 27.6947 47.8453 26.052 46.672 24.82C45.528 23.5587 44.0467 22.928 42.228 22.928C40.4093 22.928 38.9133 23.5587 37.74 24.82C36.5667 26.052 35.98 27.6947 35.98 29.748C35.98 31.8307 36.552 33.488 37.696 34.72ZM82.1883 32.52H76.5563V40H71.3203V32.52H55.5682V28.164L71.3643 8.1H76.5563V27.988H82.1883V32.52ZM61.2882 27.988H71.3203V14.92L61.2882 27.988Z" fill="white"/>
</svg>
