<svg width="112" height="50" viewBox="0 0 112 50" fill="none" xmlns="http://www.w3.org/2000/svg">
<path d="M14.6317 6.58009C15.6653 4.98526 16.1118 3.5 16.1118 3.5C16.1118 3.5 14.7571 3.94477 13.0928 5.2379C11.571 6.58403 9.8089 8.92812 9.933 11.9951C12.2086 10.212 13.7104 8.30266 14.6317 6.58009Z" fill="white"/>
<path d="M5.94412 24.2967L5.85583 25.5496C5.84004 25.8164 6.02667 26.0529 6.29917 26.0596C6.56122 26.0807 6.79792 25.8643 6.81243 25.6064L6.90159 24.3573C8.77076 23.2558 10.0528 21.6841 10.8599 20.2827C11.2666 19.506 11.6316 18.8064 11.8938 18.3043C12.1059 17.7714 12.2441 17.4485 12.2441 17.4485C12.2441 17.4485 11.0286 17.5635 9.53373 18.5156C8.47602 19.3032 7.05414 20.7405 6.52757 23.03C6.52417 23.0295 6.52105 23.0268 6.51696 23.0262C6.53408 20.665 6.24223 18.7871 5.63803 17.2936C5.08645 15.5296 4.29133 14.44 4.29133 14.44C4.29133 14.44 4.1627 14.8716 3.95772 15.5594C3.78154 16.2604 3.55296 17.2208 3.6206 18.344C3.63553 20.3782 4.1589 22.7646 5.94412 24.2967Z" fill="white"/>
<path d="M7.11264 17.8115C7.01612 18.0721 7.16657 18.3422 7.42833 18.424C7.6753 18.5019 7.93343 18.3454 8.02779 18.0999L8.43041 16.9467C10.4674 16.3501 11.7952 15.0342 12.9481 13.9562C13.5453 13.3405 13.9739 12.7282 14.2596 12.2758C14.5722 11.8356 14.7773 11.5772 14.7773 11.5772C14.7773 11.5772 13.5177 11.3557 12.0694 12.0305C10.8639 12.5442 9.347 13.5872 8.35687 15.5425C8.34684 15.5394 8.33827 15.5359 8.32883 15.5336C8.82862 13.373 8.84497 11.5788 8.64134 10.094C8.32623 8.26158 7.89553 7.13092 7.89553 7.13092C7.72932 6.97106 4.68461 12.8931 7.49592 16.6959L7.11264 17.8115Z" fill="white"/>
<path d="M9.9133 39.7997C10.2671 40.3014 10.9237 41.2131 10.9746 41.1651C11.174 41.3657 11.4889 41.3877 11.6755 41.2047C11.861 41.02 11.8746 40.7148 11.688 40.5311C11.6369 40.5671 10.9783 39.6593 10.6462 39.1958C12.3635 33.9571 11.3006 29.7713 11.4886 29.4904C11.4886 29.4904 10.1226 30.219 9.37649 31.892C8.58043 33.3531 8.14623 36.0653 9.81744 38.7861C9.80652 38.7942 9.79483 38.7979 9.78459 38.8061C9.76685 38.818 9.75776 38.8377 9.74323 38.8515C7.7961 36.3238 6.13502 34.494 4.58514 33.0625C2.75207 31.4944 1.51464 30.6932 1.51573 30.6856C1.41459 30.6464 1.7793 33.0399 3.25181 35.5842C4.60769 37.9098 7.15352 39.9039 9.9133 39.7997Z" fill="white"/>
<path d="M15.9098 45.3301L19.0128 47.2274C19.2483 47.381 19.5533 47.2625 19.662 47.0335C19.7754 46.7771 19.6605 46.5121 19.439 46.3679L16.3782 44.488C16.2442 41.5929 15.4449 39.2388 14.7649 37.5821C14.1327 35.7427 13.376 34.56 13.4283 34.5065C13.4283 34.5065 12.3803 35.685 12.2421 37.7124C11.9417 39.6201 12.7893 42.3926 15.6025 44.4785C15.5836 44.4986 15.5609 44.5154 15.5441 44.5401C12.6144 42.7136 10.0122 41.6906 7.98223 40.7974C5.63723 39.9512 4.03088 39.6036 4.03088 39.6036C4.03088 39.6036 4.24852 40.1993 4.89212 41.0116C5.54765 41.7941 6.42825 42.9055 7.64153 43.8269C9.97864 45.573 13.2321 46.6127 15.9098 45.3301Z" fill="white"/>
<path d="M6.49032 32.4952L6.96099 34.1811C7.03733 34.4475 7.29518 34.6055 7.54417 34.5081C7.79383 34.4109 7.93422 34.1264 7.86478 33.8703L7.41349 32.249C9.13531 30.3087 10.2333 28.209 10.7402 26.4966C11.5075 24.6268 11.5189 23.1159 11.6052 23.0927C11.6052 23.0927 10.218 23.4476 8.86892 24.8686C7.61586 26.0959 6.32997 28.4124 6.82532 31.5516C6.79075 31.5494 6.75687 31.5425 6.72258 31.5481C5.90201 28.4881 4.92462 26.1549 3.93221 24.4052C2.76743 22.4559 1.65807 21.3443 1.65807 21.3443C1.65807 21.3443 1.52228 21.8749 1.54625 22.7618C1.54112 23.6425 1.60236 24.874 1.81815 26.176C2.43445 28.6785 3.78185 31.5224 6.49032 32.4952Z" fill="white"/>
<path d="M97.6026 6.58009C96.5691 4.98526 96.1226 3.5 96.1226 3.5C96.1226 3.5 97.4773 3.94477 99.1415 5.2379C100.663 6.58403 102.425 8.92812 102.301 11.9951C100.026 10.212 98.524 8.30266 97.6026 6.58009Z" fill="white"/>
<path d="M106.29 24.2967L106.379 25.5496C106.394 25.8164 106.208 26.0529 105.935 26.0596C105.673 26.0807 105.436 25.8643 105.422 25.6064L105.333 24.3573C103.464 23.2558 102.182 21.6841 101.375 20.2827C100.968 19.506 100.603 18.8064 100.341 18.3043C100.128 17.7714 99.9903 17.4485 99.9903 17.4485C99.9903 17.4485 101.206 17.5635 102.701 18.5156C103.758 19.3032 105.18 20.7405 105.707 23.03C105.71 23.0295 105.713 23.0268 105.717 23.0262C105.7 20.665 105.992 18.7871 106.596 17.2936C107.148 15.5296 107.943 14.44 107.943 14.44C107.943 14.44 108.072 14.8716 108.277 15.5594C108.453 16.2604 108.681 17.2208 108.614 18.344C108.599 20.3782 108.075 22.7646 106.29 24.2967Z" fill="white"/>
<path d="M105.122 17.8115C105.218 18.0721 105.068 18.3422 104.806 18.424C104.559 18.5019 104.301 18.3454 104.207 18.0999L103.804 16.9467C101.767 16.3501 100.439 15.0342 99.2863 13.9562C98.6891 13.3405 98.2605 12.7282 97.9748 12.2758C97.6621 11.8356 97.4571 11.5772 97.4571 11.5772C97.4571 11.5772 98.7167 11.3557 100.165 12.0305C101.37 12.5442 102.887 13.5872 103.878 15.5425C103.888 15.5394 103.896 15.5359 103.906 15.5336C103.406 13.373 103.389 11.5788 103.593 10.094C103.908 8.26158 104.339 7.13092 104.339 7.13092C104.505 6.97106 107.55 12.8931 104.738 16.6959L105.122 17.8115Z" fill="white"/>
<path d="M102.321 39.7997C101.967 40.3014 101.311 41.2131 101.26 41.1651C101.06 41.3657 100.745 41.3877 100.559 41.2047C100.373 41.02 100.36 40.7148 100.546 40.5311C100.598 40.5671 101.256 39.6593 101.588 39.1958C99.8709 33.9571 100.934 29.7713 100.746 29.4904C100.746 29.4904 102.112 30.219 102.858 31.892C103.654 33.3531 104.088 36.0653 102.417 38.7861C102.428 38.7942 102.44 38.7979 102.45 38.8061C102.468 38.818 102.477 38.8377 102.491 38.8515C104.438 36.3238 106.099 34.494 107.649 33.0625C109.482 31.4944 110.72 30.6932 110.719 30.6856C110.82 30.6464 110.455 33.0399 108.983 35.5842C107.627 37.9098 105.081 39.9039 102.321 39.7997Z" fill="white"/>
<path d="M96.3246 45.3301L93.2216 47.2274C92.9861 47.381 92.6811 47.2625 92.5724 47.0335C92.459 46.7771 92.5739 46.5121 92.7954 46.3679L95.8562 44.488C95.9902 41.5929 96.7895 39.2388 97.4694 37.5821C98.1016 35.7427 98.8583 34.56 98.8061 34.5065C98.8061 34.5065 99.854 35.685 99.9923 37.7124C100.293 39.6201 99.445 42.3926 96.6319 44.4785C96.6508 44.4986 96.6734 44.5154 96.6902 44.5401C99.62 42.7136 102.222 41.6906 104.252 40.7974C106.597 39.9512 108.203 39.6036 108.203 39.6036C108.203 39.6036 107.986 40.1993 107.342 41.0116C106.687 41.7941 105.806 42.9055 104.593 43.8269C102.256 45.573 99.0023 46.6127 96.3246 45.3301Z" fill="white"/>
<path d="M105.744 32.4952L105.273 34.1811C105.197 34.4475 104.939 34.6055 104.69 34.5081C104.441 34.4109 104.3 34.1264 104.37 33.8703L104.821 32.249C103.099 30.3087 102.001 28.209 101.494 26.4966C100.727 24.6268 100.715 23.1159 100.629 23.0927C100.629 23.0927 102.016 23.4476 103.365 24.8686C104.619 26.0959 105.904 28.4124 105.409 31.5516C105.444 31.5494 105.478 31.5425 105.512 31.5481C106.332 28.4881 107.31 26.1549 108.302 24.4052C109.467 22.4559 110.576 21.3443 110.576 21.3443C110.576 21.3443 110.712 21.8749 110.688 22.7618C110.693 23.6425 110.632 24.874 110.416 26.176C109.8 28.6785 108.453 31.5224 105.744 32.4952Z" fill="white"/>
<g clip-path="url(#clip0_44201_86360)">
<path d="M68.3802 12.5327C66.8657 12.5546 65.914 12.5874 65.8792 12.6202C65.8502 12.6476 64.6317 17.0284 63.1694 22.3553C61.7071 27.6767 60.5002 32.0575 60.4827 32.0848C60.4653 32.1122 59.3106 27.7424 57.918 22.3771L55.3822 12.6202L51.9586 12.6038L48.5292 12.5929L48.4306 12.9593C48.2275 13.725 43.6898 31.1824 43.5738 31.6473C43.4983 31.9481 43.4403 32.1067 43.4113 32.0575C43.3881 32.0137 42.1695 27.6166 40.7072 22.2842L38.0438 12.5929H34.2895H30.5352L30.6222 12.8499C30.6686 12.9976 32.8272 19.4238 35.4268 27.1408L40.1444 41.169L43.4345 41.1854C45.2391 41.1909 46.7188 41.1854 46.7188 41.169C46.7188 41.1144 51.831 22.8366 51.8716 22.7436C51.9006 22.6725 52.3358 24.1437 53.2758 27.4744C54.0186 30.1324 55.1791 34.278 55.858 36.6844L57.0824 41.0597L60.3725 41.0761L63.6568 41.087L63.8309 40.5565C63.9295 40.2612 66.0939 33.824 68.6413 26.2493L73.2776 12.4835L72.0533 12.4945C71.3802 12.4999 69.7264 12.5163 68.3802 12.5327Z" fill="white"/>
<path d="M79.436 32.0874C76.6855 32.7601 75.1478 35.4072 75.937 38.1308C76.1807 38.9785 76.8016 39.8864 77.5153 40.4333C77.9621 40.7833 78.7745 41.1607 79.3838 41.3193C80.0627 41.4888 81.3973 41.4943 82.053 41.3248C83.4689 40.9583 84.5366 40.1653 85.1516 39.0004C85.5984 38.1636 85.6971 37.7425 85.7029 36.7143C85.7087 35.9924 85.6855 35.7955 85.5752 35.4126C85.0646 33.6352 83.6952 32.3992 81.8383 32.0437C81.1536 31.9124 80.0917 31.9288 79.436 32.0874Z" fill="white"/>
</g>
<defs>
<clipPath id="clip0_44201_86360">
<rect width="56" height="29" fill="white" transform="translate(30.5 12.5)"/>
</clipPath>
</defs>
</svg>
